# xmcd
# Copyright (C) 1995-1998 Ti Kan
#
# Track frame offsets:
#       150
#       21770
#       45352
#       65722
#       88855
#       97945
#       119547
#       139455
#       156687
#       177192
#       195005
#       213465
#
# Disc length: 3188 seconds
#
# Revision: 0
# Processed by: cddbd v1.5.1PL0 Copyright (c) Steve Scherf et al.
# Submitted via: CD-Transfer v1.0
#
DISCID=a80c720c
DTITLE=Christoph Hensch - Troumfänger
DYEAR=2004
DGENRE=
TTITLE0=Guet, Das Es Di Git
TTITLE1=Troumfänger
TTITLE2=Gsundheit
TTITLE3=Abschid Näh
TTITLE4=Funeral
TTITLE5=Äs Tuet So Weh
TTITLE6=Läb Dä Moment
TTITLE7=Wird Doch Manager
TTITLE8=Hei Doch Immer A Üs Gloubt
TTITLE9=Zäme Simer Unschlagbar
TTITLE10=Erfolg Fahrt So Guet I
TTITLE11=Troumfänger (Reprise)
EXTD=
EXTT0=
EXTT1=
EXTT2=
EXTT3=
EXTT4=
EXTT5=
EXTT6=
EXTT7=
EXTT8=
EXTT9=
EXTT10=
EXTT11=
PLAYORDER=
